<svg viewBox="0 0 400 440" fill="none">
        <defs>
          <linearGradient id="t2f" x1="0" x2="1"><stop offset="0" stop-color="#B3A58C"/><stop offset=".45" stop-color="#D3C7B0"/><stop offset=".55" stop-color="#CEC2AA"/><stop offset="1" stop-color="#B3A58C"/></linearGradient>
          <filter id="t2blur"><feGaussianBlur stdDeviation="7"/></filter>
          <symbol id="t2sh" viewBox="0 0 100 100"><path d="M50 6 L84 18 V48 C84 72 68 88 50 96 C32 88 16 72 16 48 V18 Z" fill="none" stroke="#BE5126" stroke-width="8" stroke-linejoin="round"/><path d="M24 54 H37 L44 40 L52 66 L59 46 L65 54 H78" fill="none" stroke="#141413" stroke-width="8" stroke-linecap="round" stroke-linejoin="round"/></symbol>
        </defs>
        <path d="M140 40 C150 58 172 70 200 70 C228 70 250 58 260 40 L318 62 C340 70 356 84 366 104 L392 166 L332 190 L314 146 L316 410 C316 418 310 424 302 424 L98 424 C90 424 84 418 84 410 L86 146 L68 190 L8 166 L34 104 C44 84 60 70 82 62 Z" fill="url(#t2f)"/>
        <g filter="url(#t2blur)" opacity=".35"><path d="M126 190 C138 260 126 340 140 410" stroke="#8C8576" stroke-width="14"/><path d="M274 200 C262 270 276 340 262 410" stroke="#8C8576" stroke-width="12"/></g>
        <path d="M140 40 C150 58 172 70 200 70 C228 70 250 58 260 40 C250 52 228 60 200 60 C172 60 150 52 140 40 Z" fill="#B9B2A3"/>
        <path d="M86 150 C92 120 96 92 82 62 M314 150 C308 120 304 92 318 62" stroke="#8C8576" stroke-opacity=".7" stroke-width="1.5"/>
        <path d="M88 404 L312 404" stroke="#8C8576" stroke-opacity=".7" stroke-width="1.2" stroke-dasharray="3 3"/>
        <g font-family="Oswald, sans-serif" font-weight="700" text-anchor="middle">
          <text x="200" y="128" font-size="29" textLength="150" lengthAdjust="spacingAndGlyphs" fill="#141413" letter-spacing="1">NEVER TOO OLD.</text>
          <line x1="122" y1="118" x2="278" y2="118" stroke="#BE5126" stroke-width="3"/>
          <text x="200" y="164" font-size="29" textLength="154" lengthAdjust="spacingAndGlyphs" fill="#141413" letter-spacing="1">NEVER TOO SICK.</text>
          <line x1="120" y1="154" x2="280" y2="154" stroke="#BE5126" stroke-width="3"/>
          <text x="200" y="200" font-size="29" textLength="166" lengthAdjust="spacingAndGlyphs" fill="#141413" letter-spacing="1">NEVER TOO HEAVY.</text>
          <line x1="114" y1="190" x2="286" y2="190" stroke="#BE5126" stroke-width="3"/>
          <text x="200" y="236" font-size="29" textLength="154" lengthAdjust="spacingAndGlyphs" fill="#141413" letter-spacing="1">NEVER TOO THIN.</text>
          <line x1="120" y1="226" x2="280" y2="226" stroke="#BE5126" stroke-width="3"/>
          <text x="200" y="292" font-size="46" textLength="214" lengthAdjust="spacingAndGlyphs" fill="#BE5126" letter-spacing="1">NEVER TOO LATE.</text>
        </g>
      </svg>